<svg xmlns="http://www.w3.org/2000/svg" viewBox="0 0 205.49 248.78"><title>Indian Oil Corporation logo</title><rect x="198.64" y="214.08" width="6.79" height="34.12" style="fill:#1c1d4c"/><rect x="184.86" y="223.47" width="6.78" height="24.73" style="fill:#1c1d4c"/><rect x="184.86" y="214.08" width="6.78" height="6.05" style="fill:#1c1d4c"/><path d="M548.63,635.81h-6.8V623.19a19.08,19.08,0,0,0-.44-5.2,3.88,3.88,0,0,0-1.43-1.81,4.13,4.13,0,0,0-2.34-.66,5.76,5.76,0,0,0-3.2.94,4.77,4.77,0,0,0-1.91,2.48,20.17,20.17,0,0,0-.53,5.67v11.19H525.2V611.08h6.29v3.65a10.86,10.86,0,0,1,12.61-3.43,6.86,6.86,0,0,1,2.8,2,7,7,0,0,1,1.35,2.76,19,19,0,0,1,.38,4.39Z" transform="translate(-409.26 -387.61)" style="fill:#1c1d4c"/><rect x="74.6" y="223.47" width="6.8" height="24.73" style="fill:#1c1d4c"/><rect x="74.6" y="214.08" width="6.8" height="6.05" style="fill:#1c1d4c"/><path d="M446.66,635.81h-6.79V623.19a17.86,17.86,0,0,0-.46-5.2,3.63,3.63,0,0,0-1.42-1.81,4.18,4.18,0,0,0-2.36-.66,5.76,5.76,0,0,0-3.19.94,4.82,4.82,0,0,0-1.9,2.48,20.09,20.09,0,0,0-.54,5.67v11.19h-6.8V611.08h6.32v3.65a10.85,10.85,0,0,1,12.61-3.43,7,7,0,0,1,2.82,2,7.3,7.3,0,0,1,1.33,2.76,19.49,19.49,0,0,1,.37,4.39Z" transform="translate(-409.26 -387.61)" style="fill:#1c1d4c"/><rect x="0.07" y="214.08" width="7.15" height="34.12" style="fill:#1c1d4c"/><path d="M512,387.61c56.18,0,102.74,46.38,102.74,103S568.18,593.09,512,593.09c-56.64,0-102.74-45.83-102.74-102.46s46.1-103,102.74-103" transform="translate(-409.26 -387.61)" style="fill:#1c1d4c"/><path d="M512,392.6c53.74,0,97.78,44.11,97.78,98s-44,98-97.78,98c-53.9,0-98-44.13-98-98s44.12-98,98-98" transform="translate(-409.26 -387.61)" style="fill:#fff"/><path d="M512,396.06c51.74,0,94,42.38,94,94.56a94.31,94.31,0,1,1-94-94.56" transform="translate(-409.26 -387.61)" style="fill:#1c1d4c"/><path d="M511.83,397.66a92.69,92.69,0,1,1-92.68,92.69,92.6,92.6,0,0,1,92.68-92.69" transform="translate(-409.26 -387.61)" style="fill:#f37125"/><path d="M420.77,514.76a92.66,92.66,0,0,1-3.26-24.14v-3.9A98,98,0,0,1,421.14,465H602.58A92.74,92.74,0,0,1,606,490.62a94.21,94.21,0,0,1-3,24.14Z" transform="translate(-409.26 -387.61)" style="fill:#1c1d4c"/><path d="M527.88,483.18a7.35,7.35,0,0,1-2.31,7.79,5.69,5.69,0,0,1,2.9,3.72,6.8,6.8,0,0,1-3.78,7.59c-2.28,1.44-5.59.92-7.88.05a8.85,8.85,0,0,1-4.71-5.61l3.6-2.26c2.48,9.49,11.58,1.29,5.81-2.9l-3.73,0v-2.72c9.58-1.38,4.35-10.44-1.37-3.54l-3-2.23a7.64,7.64,0,0,1,4.39-4.64c4.29-1.39,8.62.5,10,4.77" transform="translate(-409.26 -387.61)" style="fill:#fff"/><path d="M578.41,627.53a9.88,9.88,0,0,1-14.13,0c-1.85-2-2.79-4.95-2.79-8.8s.92-6.87,2.72-8.82a10.19,10.19,0,0,1,14.25,0c1.78,1.93,2.69,4.86,2.69,8.77s-.93,6.92-2.74,8.9m5.42-21.76q-4.7-4.69-12.54-4.69a19.75,19.75,0,0,0-7.65,1.37,13.63,13.63,0,0,0-4.59,3.06,16.08,16.08,0,0,0-3.3,4.69,20.79,20.79,0,0,0-1.63,8.76q0,8.16,4.68,12.79t12.59,4.64q7.84,0,12.49-4.66t4.69-12.93c0-5.55-1.58-9.91-4.73-13" transform="translate(-409.26 -387.61)" style="fill:#1c1d4c"/><path d="M468.72,629.28a5,5,0,0,1-4,1.92,5.2,5.2,0,0,1-4.63-2.56c-.74-1.17-1.14-3.08-1.14-5.72a8.16,8.16,0,0,1,1.65-5.54,5.41,5.41,0,0,1,8.15,0c1.05,1.25,1.58,3.31,1.58,6.15,0,2.53-.54,4.46-1.65,5.73m1.62-27.59V614a9.76,9.76,0,0,0-7.44-3.45,10.33,10.33,0,0,0-7.8,3.27c-2,2.17-3.07,5.37-3.07,9.57s1.06,7.29,3.17,9.58a10,10,0,0,0,7.6,3.44,9.69,9.69,0,0,0,4.32-1,9.81,9.81,0,0,0,3.7-3.15v3.62h6.32V601.69Z" transform="translate(-409.26 -387.61)" style="fill:#1c1d4c"/><path d="M511.82,625.24a11.69,11.69,0,0,1-.26,3.17,4,4,0,0,1-1.61,2.18,6.07,6.07,0,0,1-3.52,1.17,3.83,3.83,0,0,1-2.72-1,3.1,3.1,0,0,1-1.06-2.36,2.73,2.73,0,0,1,1.35-2.32,13.32,13.32,0,0,1,3.69-1.13c1.9-.39,3.28-.73,4.14-1Zm6.95,7.25a24.66,24.66,0,0,1-.32-4.81l.07-7.63c0-2.84-.3-4.8-.92-5.86a6.77,6.77,0,0,0-3.11-2.64,17.05,17.05,0,0,0-6.8-1c-3.34,0-5.86.58-7.55,1.71a9.25,9.25,0,0,0-3.59,5.32l6.18,1.07a4.72,4.72,0,0,1,1.64-2.41,5,5,0,0,1,2.84-.7c1.8,0,3,.27,3.66.81a3.3,3.3,0,0,1,1,2.69v.66a41.48,41.48,0,0,1-6.6,1.61,23.35,23.35,0,0,0-5.41,1.5,6.93,6.93,0,0,0-2.93,2.52,6.83,6.83,0,0,0-1,3.74,6.75,6.75,0,0,0,2.31,5.24,9,9,0,0,0,6.25,2.08,11.74,11.74,0,0,0,4.25-.8,12.74,12.74,0,0,0,3.73-2.46,7.74,7.74,0,0,1,.24.77c.25.85.47,1.49.65,1.92H520a14.31,14.31,0,0,1-1.24-3.32" transform="translate(-409.26 -387.61)" style="fill:#1c1d4c"/><path d="M483.51,491.91c-1.46,3.07-6.49,3.63-7.86-.21,3.73-.73,4.33-7.34,2.33-9.63h5.54Zm-33.39-13.79c2.43-5.36,9.76-4.71,11.88,0Zm16.72,0a15.66,15.66,0,0,0-3.32-4.42c-6.24-4.84-15-3-18.27,4.42H424.65v3.95h10.62v2.5h-6.13a5.29,5.29,0,0,0-4.2,7.16c2.91,4.92,10.89,2.42,12,4.84-.09,3-3.88,3.84-5.15,2.95-2.14-4.26-9.52-2.47-7.25,2.78a4.5,4.5,0,0,0,5,2.47A14.65,14.65,0,0,0,434,510.6l2.94-3a13.15,13.15,0,0,1-2.61-3.36,12.4,12.4,0,0,0,4.07-1.07c4.15-1.78,5.31-8.68,1-10.86-4.4-1.83-9.87.76-10.5-2.35,0-.85.31-1.42,2.86-1.42h8.55v-6.45h4.61v21.39h5V482.07l12.28,0v2.52H457a5.19,5.19,0,0,0-3.81,7.26c2.24,3.91,7.4,2.82,11.11,4,2,1.08.12,3.39-1.66,3.56a9.21,9.21,0,0,1-7.32-1.28l-2.4,2.72a14.62,14.62,0,0,0,12.72,2,6.6,6.6,0,0,0,3.74-3.05c1.28-2.28,1.07-5-1.31-6.45-4.08-2.44-11.12-.35-11.05-3.08.07-1.53,1.37-1.75,2.39-1.76h7.85v-6.42h5c3.17,1.23,3.44,7-1.59,7.71a7.16,7.16,0,0,0,1.9,6.12c3.19,3.54,10.06,2.8,10.94,1.08v6.48h5V482.07h16.34v6H494.78c-4,.62-4.59,7.1.92,7.27a3.61,3.61,0,0,0,3.21-3.67l6,0v11.82h5V482.07h2.25v-3.95Z" transform="translate(-409.26 -387.61)" style="fill:#fff"/><path d="M547,473.31c-2.76,5.86-11.08,5.34-13.81.08l3-1.77a4.72,4.72,0,0,0,8.07-.14Z" transform="translate(-409.26 -387.61)" style="fill:#fff"/><path d="M562.63,491.91c-1.43,3.07-6.51,3.63-7.86-.21,3.74-.93,4.34-7.58,2.32-9.63h5.55ZM547.5,478.12H529v3.95h3.57v5h-3.73v4.7h3.73v11.69h5V482.07h3.54v21.39h5V482h1.31v0h3.91c3.13,1.23,3.43,7-1.62,7.71a7.09,7.09,0,0,0,1.92,6.12c3.18,3.54,10.07,2.8,10.92,1.08v6.48h5V482.07H590v4.5l-2.8,1.59c-1-.27-7.84-7.58-14.36-1.27-4.37,4-1.66,13.44,5.06,16.56l1.79-3.81c-3.67-3-6-6.74-2-9.6,1.27-.82,3.31-.08,4.13,1.35l-2.71,1.47,2.3,3.86,8.59-5.29v12h5V482.07l4.29,0v-3.92Z" transform="translate(-409.26 -387.61)" style="fill:#fff"/><path d="M438.67,470.58a3,3,0,0,1,0,6,3,3,0,1,1,0-6" transform="translate(-409.26 -387.61)" style="fill:#fff"/></svg>